<svg xmlns="http://www.w3.org/2000/svg" width="448" height="310" viewBox="0 0 448 310">
    <g data-name="组 26570">
        <g data-name="组 25413">
            <g data-name="组 25220">
                <g data-name="组 25026">
                    <g data-name="组 25021">
                        <g data-name="组 25020">
                            <path data-name="路径 22048" d="M127.865 156.103 156.61 52.74a1.319 1.319 0 0 1 2.447-.241 1.22 1.22 0 0 1 .095.318l13.092 28.896c.258 1.725 3.81 2.29 4.594.728l24.025-51.243a2.438 2.438 0 0 1 4.59.734l11.741 47.212a2.439 2.439 0 0 0 4.533.845c.045-.081 19.064-44.364 19.11-44.447a2.438 2.438 0 0 1 4.524.835l8.285 48.055a2.438 2.438 0 0 0 4.593.72l22.36-41.93a2.439 2.439 0 0 1 4.573.595c.016.087 5.782 62.88 5.782 62.88.258 1.726 3.816 2.29 4.595.727l20.843-20.13a1.226 1.226 0 0 1 .187-.274 1.319 1.319 0 0 1 2.253.988l-2.653 97.653a43.024 43.024 0 0 1-37.42 41.49l-51.489 6.744a54.3 54.3 0 0 1-30.537-4.882l-46.156-22.144a43.023 43.023 0 0 1-22.712-50.766z"/>
                            <path data-name="路径 22049" d="M211.56 234.732a55.3 55.3 0 0 1-15.28-4.77l-46.157-22.142a43.932 43.932 0 0 1-23.265-52.003l28.744-103.356a2.382 2.382 0 0 1 2.151-1.73 2.275 2.275 0 0 1 2.26 1.342 2.315 2.315 0 0 1 .143.427l13.102 28.916.02.145c.039.257.519.604 1.226.718h.005c.71.113 1.275-.069 1.393-.302l24.013-51.223a3.436 3.436 0 0 1 3.671-1.903l.006.001a3.428 3.428 0 0 1 2.886 2.873L218.23 78.99a1.348 1.348 0 0 0 1.123 1.163 1.333 1.333 0 0 0 1.44-.637c.35-.803 5.04-11.714 9.577-22.276 9.51-22.119 9.512-22.128 9.554-22.206a3.484 3.484 0 0 1 6.478 1.186l8.287 48.037a1.364 1.364 0 0 0 1.162 1.185 1.355 1.355 0 0 0 1.461-.755L279.68 42.73a3.485 3.485 0 0 1 6.521.883c.015.073.029.147 5.795 62.95.06.257.533.59 1.228.7.71.114 1.276-.068 1.392-.302l.08-.161 20.864-20.15a2.34 2.34 0 0 1 .244-.324 2.268 2.268 0 0 1 2.563-.58 2.379 2.379 0 0 1 1.514 2.302l-2.652 97.648a44.069 44.069 0 0 1-38.33 42.498l-51.488 6.744a55.3 55.3 0 0 1-15.85-.206zm-53.593-181.91a.327.327 0 0 0-.352.21l-28.746 103.363a41.844 41.844 0 0 0 22.16 49.539l46.156 22.142a53.117 53.117 0 0 0 29.949 4.788l51.489-6.745a41.976 41.976 0 0 0 36.509-40.48l2.652-97.653a.307.307 0 0 0-.203-.297c-.141-.058-.198.007-.225.038l-.08.161-.158.164-20.733 20.024a3.349 3.349 0 0 1-3.493 1.257 3.267 3.267 0 0 1-2.973-2.477l-.007-.059c-.056-.616-5.581-60.79-5.775-62.818a1.393 1.393 0 0 0-2.6-.29l-22.366 41.956a3.418 3.418 0 0 1-3.645 1.864l-.006-.001a3.428 3.428 0 0 1-2.9-2.918l-8.284-48.034a1.36 1.36 0 0 0-1.13-1.18 1.38 1.38 0 0 0-1.435.639c-.345.796-4.984 11.599-9.475 22.052-9.601 22.344-9.604 22.35-9.65 22.43a3.485 3.485 0 0 1-6.473-1.145l-11.756-47.265a1.354 1.354 0 0 0-1.156-1.17 1.356 1.356 0 0 0-1.462.75L177.79 82.89a3.272 3.272 0 0 1-3.601 1.455l-.018-.003a3.331 3.331 0 0 1-2.934-2.312L158.14 53.118l-.022-.145c-.027-.07-.056-.136-.151-.151z"/>
                        </g>
                    </g>
                    <g data-name="组 25025">
                        <path data-name="路径 22052" d="M17.149 8.575A8.574 8.574 0 1 1 8.574 0a8.575 8.575 0 0 1 8.574 8.575" transform="rotate(9 -755.709 1638.1)" style="fill:#fff"/>
                        <path data-name="路径 22053" d="M250.472 153.871a6.167 6.167 0 1 1 7.084-5.122 6.188 6.188 0 0 1-7.084 5.122"/>
                        <path data-name="路径 22054" d="M17.149 8.575A8.574 8.574 0 1 1 8.574 0a8.575 8.575 0 0 1 8.575 8.575" transform="rotate(9 -725.258 1251.183)" style="fill:#fff"/>
                        <path data-name="路径 22055" d="M190.32 144.344a6.167 6.167 0 1 1 7.084-5.122 6.188 6.188 0 0 1-7.084 5.122"/>
                        <path data-name="路径 22056" d="M37.547 4.26a1.048 1.048 0 0 0-1.032 1.157c.111 8.549-12.009 11.155-15.448 3.379C20 6.885 20.387 3.141 20.325 1a1.033 1.033 0 0 0-2.065 0v4.417c-.2 10.707-16.148 10.6-16.19-.125a1.033 1.033 0 0 0-2.065 0 10.213 10.213 0 0 0 13.782 9.615c1.462 4.062 9.548 4.06 11.01 0a10.212 10.212 0 0 0 13.783-9.49 1.047 1.047 0 0 0-1.033-1.157zm-18.255 11.7c-1.764 0-3.29-.866-3.66-1.984a10.669 10.669 0 0 0 1.528-1.2 9.453 9.453 0 0 0 1.202-1.369c.092-.127.181-.254.268-.383l.123-.192c.04-.064.082-.129.121-.194.143-.252.284-.506.413-.766a10.21 10.21 0 0 0 1.113 1.784 11.455 11.455 0 0 0 1.046 1.149c.208.2.426.387.648.561.277.215.562.418.854.611-.365 1.123-1.892 1.985-3.656 1.985z" transform="rotate(9 -925.328 1360.665)" style="fill:#fff"/>
                        <path data-name="路径 22057" d="M14.954 6.987a1.252 1.252 0 0 1-.387-.062L.853 2.418A1.24 1.24 0 1 1 1.628.061l13.713 4.508a1.24 1.24 0 0 1-.387 2.419z" transform="rotate(9 -632.943 1275.695)" style="fill:#fff"/>
                        <path data-name="路径 22058" d="M1.24 6.988a1.24 1.24 0 0 1-.387-2.419L14.566.062a1.24 1.24 0 1 1 .774 2.356L1.627 6.925a1.25 1.25 0 0 1-.387.063z" transform="rotate(9 -661.163 1634.27)" style="fill:#fff"/>
                    </g>
                </g>
                <g data-name="组 25032" transform="translate(196.914 184.11)">
                    <g data-name="组 25029">
                        <g data-name="组 25028">
                            <g data-name="组 25027">
                                <ellipse data-name="椭圆 1592" cx="59.334" cy="60.127" rx="59.334" ry="60.127" transform="translate(.819 .82)" style="stroke:#000;fill:#55e6c3"/>
                                <path data-name="路径 22059" d="M534.285 369.831c-33.169 0-60.154-27.341-60.154-60.947s26.985-60.947 60.154-60.947 60.154 27.341 60.154 60.947-26.985 60.947-60.154 60.947zm0-120.255c-32.266 0-58.515 26.606-58.515 59.308s26.249 59.308 58.515 59.308 58.515-26.606 58.515-59.308-26.25-59.308-58.515-59.308z" transform="translate(-474.131 -247.937)" style="stroke:#000"/>
                            </g>
                        </g>
                    </g>
                    <g data-name="组 25030" transform="translate(24.875 30.739)">
                        <ellipse data-name="椭圆 1593" cx="6.185" cy="12.855" rx="6.185" ry="12.855" transform="translate(.803 .803)" style="stroke:#000;fill:#fff"/>
                        <path data-name="路径 22060" d="M541.835 350.28c-3.918 0-6.988-6-6.988-13.658s3.069-13.658 6.988-13.658 6.987 6 6.987 13.658-3.069 13.658-6.987 13.658zm0-25.711c-2.6 0-5.383 4.843-5.383 12.053s2.783 12.053 5.383 12.053 5.382-4.843 5.382-12.053-2.783-12.053-5.382-12.053z" transform="translate(-534.847 -322.964)" style="stroke:#000"/>
                    </g>
                    <ellipse data-name="椭圆 1594" cx="5.101" cy="5.342" rx="5.101" ry="5.342" transform="translate(25.38 39.055)" style="stroke:#000"/>
                    <g data-name="组 25031" transform="translate(67.015 30.739)">
                        <ellipse data-name="椭圆 1595" cx="6.185" cy="12.855" rx="6.185" ry="12.855" transform="translate(.803 .803)" style="stroke:#000;fill:#fff"/>
                        <path data-name="路径 22061" d="M644.691 350.28c-3.918 0-6.988-6-6.988-13.658s3.07-13.658 6.988-13.658 6.988 6 6.988 13.658-3.07 13.658-6.988 13.658zm0-25.711c-2.6 0-5.383 4.843-5.383 12.053s2.783 12.053 5.383 12.053 5.383-4.843 5.383-12.053-2.784-12.053-5.383-12.053z" transform="translate(-637.703 -322.964)" style="stroke:#000"/>
                    </g>
                    <ellipse data-name="椭圆 1596" cx="5.101" cy="5.342" rx="5.101" ry="5.342" transform="translate(67.52 39.055)" style="stroke:#000"/>
                </g>
                <g data-name="组 25039">
                    <g data-name="组 25035">
                        <g data-name="组 25034">
                            <g data-name="组 25033">
                                <path data-name="路径 22062" d="m1140.25 305.3 3.6-5.983a6.205 6.205 0 0 0-2.171-8.544l-6.021-3.538-.371-17.477a14.674 14.674 0 0 0-9.018-13.41 11.873 11.873 0 0 0-8.556-.061l-21.04 8.042-19.248-11.309c-4.9-2.879-12.813-.869-15.745 4l-11.513 19.126-22.327 2.979a11.876 11.876 0 0 0-7.489 4.138 14.673 14.673 0 0 0-1.522 16.088l8.017 15.534-3.6 5.983a6.205 6.205 0 0 0 2.171 8.544l6.021 3.538.371 17.476a14.672 14.672 0 0 0 9.018 13.41 11.872 11.872 0 0 0 8.556.061l21.04-8.042 19.248 11.309a11.608 11.608 0 0 0 15.744-4l11.514-19.126 22.326-2.979a11.873 11.873 0 0 0 7.489-4.138 14.674 14.674 0 0 0 1.522-16.089z" transform="translate(-709.295 -142.717)" style="fill:#ff4691;stroke:#000"/>
                                <path data-name="路径 22063" d="M1094.3 368.359a12.257 12.257 0 0 1-6.228-1.693l-18.908-11.109-20.672 7.9a12.732 12.732 0 0 1-9.143-.062 15.49 15.49 0 0 1-9.542-14.158l-.362-17.019-5.626-3.306a7.024 7.024 0 0 1-2.458-9.673l3.366-5.592-7.808-15.127a15.487 15.487 0 0 1 1.626-16.995 12.728 12.728 0 0 1 8-4.42l21.936-2.927 11.31-18.788c3.186-5.29 11.537-7.412 16.862-4.285l18.908 11.11 20.671-7.9a12.722 12.722 0 0 1 9.144.062 15.488 15.488 0 0 1 9.542 14.157l.361 17.019 5.627 3.306a7.027 7.027 0 0 1 2.458 9.673l-3.366 5.591 7.807 15.127a15.488 15.488 0 0 1-1.626 16.995 12.727 12.727 0 0 1-8 4.42l-21.936 2.926-11.311 18.788a12.4 12.4 0 0 1-10.632 5.98zm-25.061-14.528a.816.816 0 0 1 .415.113l19.248 11.309a10.765 10.765 0 0 0 14.627-3.717l11.514-19.126a.82.82 0 0 1 .594-.39l22.326-2.978a11.1 11.1 0 0 0 6.973-3.857 13.837 13.837 0 0 0 1.422-15.185l-8.017-15.533a.819.819 0 0 1 .026-.8l3.6-5.983a5.385 5.385 0 0 0-1.885-7.415l-6.021-3.538a.82.82 0 0 1-.4-.689l-.372-17.477a13.833 13.833 0 0 0-8.494-12.663 11.091 11.091 0 0 0-7.968-.061l-21.04 8.042a.818.818 0 0 1-.707-.059l-19.249-11.31c-4.532-2.664-11.916-.787-14.627 3.717l-11.513 19.126a.821.821 0 0 1-.594.39l-22.326 2.979a11.091 11.091 0 0 0-6.973 3.857 13.834 13.834 0 0 0-1.418 15.182l8.02 15.535a.821.821 0 0 1-.026.8l-3.6 5.983a5.385 5.385 0 0 0 1.884 7.415l6.021 3.538a.821.821 0 0 1 .4.689l.372 17.477a13.833 13.833 0 0 0 8.494 12.663 11.093 11.093 0 0 0 7.968.061l21.04-8.042a.822.822 0 0 1 .29-.053z" transform="translate(-708.113 -141.513)" style="stroke:#000"/>
                            </g>
                        </g>
                    </g>
                    <g data-name="组 25038" transform="translate(361.166 142.043)">
                        <g data-name="组 25036" transform="translate(0 9.355)">
                            <ellipse data-name="椭圆 1597" cx="6.476" cy="12.855" rx="6.476" ry="12.855" transform="matrix(.969 -.246 .246 .969 0 3.19)" style="stroke:#000;fill:#fff"/>
                            <path data-name="路径 22064" d="M1161.37 383.648c-3.7 0-7.683-4.79-9.411-11.586-1.888-7.433-.262-14.045 3.7-15.053s8.552 4.026 10.441 11.458c1.889 7.433.262 14.044-3.7 15.052a4.159 4.159 0 0 1-1.03.129zm-4.657-25.127a2.607 2.607 0 0 0-.645.079c-2.971.755-4.124 6.734-2.517 13.057s5.474 11.025 8.445 10.27 4.124-6.735 2.518-13.056c-1.493-5.871-4.937-10.349-7.801-10.349z" transform="translate(-1149.589 -356.21)" style="stroke:#000"/>
                        </g>
                        <circle data-name="椭圆 1598" cx="5.342" cy="5.342" transform="translate(5.656 17.019)" style="stroke:#000" r="5.342"/>
                        <g data-name="组 25037" transform="translate(39.382)">
                            <ellipse data-name="椭圆 1599" cx="6.476" cy="12.855" rx="6.476" ry="12.855" transform="matrix(.969 -.246 .246 .969 0 3.19)" style="stroke:#000;fill:#fff"/>
                            <path data-name="路径 22065" d="M1257.494 360.812c-3.7 0-7.683-4.79-9.411-11.586-1.888-7.433-.261-14.045 3.7-15.052 2-.505 4.191.48 6.188 2.778a21.512 21.512 0 0 1 4.253 8.679 21.509 21.509 0 0 1 .407 9.657c-.659 2.973-2.118 4.889-4.111 5.4a4.16 4.16 0 0 1-1.026.124zm-4.687-25.122a2.5 2.5 0 0 0-.615.075c-2.971.755-4.123 6.734-2.517 13.056s5.467 11.029 8.445 10.271c1.341-.341 2.4-1.857 2.912-4.159a19.855 19.855 0 0 0-.394-8.9 19.854 19.854 0 0 0-3.9-8.006c-1.32-1.514-2.717-2.337-3.931-2.337z" transform="translate(-1245.713 -333.374)" style="stroke:#000"/>
                        </g>
                        <circle data-name="椭圆 1600" cx="5.342" cy="5.342" transform="translate(45.037 7.665)" style="stroke:#000" r="5.342"/>
                    </g>
                </g>
                <g data-name="组 25045">
                    <g data-name="组 25041">
                        <g data-name="组 25040">
                            <path data-name="路径 22066" d="M1125.927 501.129v-6.36c0-4.671-7.1-8.619-16.6-9.231l-34.953-2.252c-5.48-.353-11-.56-16.535-.576h-3.193a269.51 269.51 0 0 0-16.535.576l-34.953 2.252c-9.5.612-16.6 4.56-16.6 9.231v6.36c0 4.671 7.1 8.619 16.6 9.231 3.9.252 3.9 2.868 0 3.12-9.5.612-16.6 4.56-16.6 9.231v6.36c0 4.671 7.1 8.619 16.6 9.231 3.9.252 3.9 2.869 0 3.12-9.5.612-16.6 4.56-16.6 9.231v6.36c0 4.671 7.1 8.619 16.6 9.232l34.954 2.252c5.48.353 11 .56 16.534.576h3.193a268.685 268.685 0 0 0 16.534-.576l34.953-2.252c9.5-.613 16.6-4.56 16.6-9.232v-6.36c0-4.67-7.1-8.619-16.6-9.231-3.9-.252-3.9-2.869 0-3.12 9.5-.612 16.6-4.56 16.6-9.231v-6.36c0-4.671-7.1-8.619-16.6-9.231-3.9-.252-3.9-2.868 0-3.12 9.501-.612 16.601-4.56 16.601-9.231z" transform="translate(-685.249 -277.531)" style="fill:#ffe11e;stroke:#000"/>
                            <path data-name="路径 22067" d="M1055.062 568.715h-1.6a270.542 270.542 0 0 1-16.584-.578l-34.953-2.252c-10.063-.649-17.367-4.875-17.367-10.049v-6.36c0-5.174 7.3-9.4 17.367-10.049 1.543-.1 2.132-.588 2.161-.746-.029-.15-.618-.64-2.161-.739-10.063-.649-17.367-4.875-17.367-10.049v-6.361c0-5.174 7.3-9.4 17.367-10.049 1.543-.1 2.132-.588 2.161-.746-.029-.15-.618-.64-2.161-.739-10.063-.648-17.367-4.874-17.367-10.049v-6.36c0-5.174 7.3-9.4 17.367-10.049l34.952-2.252a271.378 271.378 0 0 1 16.585-.577h3.2c5.293.015 10.873.209 16.586.577l34.952 2.252c10.063.648 17.367 4.875 17.367 10.049v6.36c0 5.175-7.3 9.4-17.367 10.049-1.544.1-2.132.589-2.161.746.029.151.618.64 2.161.739 10.063.648 17.367 4.875 17.367 10.049v6.361c0 5.174-7.3 9.4-17.367 10.049-1.544.1-2.132.589-2.161.746.029.15.618.64 2.161.739 10.063.649 17.367 4.875 17.367 10.049v6.36c0 5.174-7.3 9.4-17.367 10.049l-34.953 2.252a271.4 271.4 0 0 1-16.585.578zm0-86.368h-1.594a269.66 269.66 0 0 0-16.484.574l-34.953 2.252c-8.879.572-15.834 4.267-15.834 8.413v6.36c0 4.146 6.954 7.841 15.834 8.414 2.727.176 3.695 1.39 3.695 2.378s-.968 2.2-3.695 2.377c-8.879.572-15.834 4.268-15.834 8.413v6.361c0 4.146 6.954 7.841 15.834 8.413 2.727.176 3.695 1.391 3.695 2.378s-.968 2.2-3.695 2.378c-8.879.572-15.834 4.267-15.834 8.414v6.36c0 4.146 6.954 7.841 15.834 8.413l34.953 2.252c5.679.366 11.224.559 16.484.574h3.188c5.26-.015 10.805-.208 16.484-.574l34.953-2.252c8.879-.572 15.834-4.267 15.834-8.413v-6.36c0-4.146-6.955-7.841-15.834-8.414-2.727-.176-3.694-1.391-3.694-2.378s.968-2.2 3.694-2.378c8.879-.572 15.834-4.267 15.834-8.413v-6.361c0-4.146-6.955-7.841-15.834-8.413-2.727-.175-3.694-1.39-3.694-2.377s.968-2.2 3.694-2.378c8.879-.572 15.834-4.268 15.834-8.414v-6.36c0-4.146-6.955-7.841-15.834-8.413l-34.952-2.252a269.719 269.719 0 0 0-16.485-.574z" transform="translate(-684.069 -276.351)" style="stroke:#000"/>
                        </g>
                    </g>
                    <g data-name="组 25044" transform="translate(359.489 232.836)">
                        <g data-name="组 25042">
                            <ellipse data-name="椭圆 1601" cx="6.476" cy="12.855" rx="6.476" ry="12.855" transform="translate(.821 .821)" style="stroke:#000;fill:#fff"/>
                            <path data-name="路径 22068" d="M1135.862 577.571c-4.092 0-7.3-6.007-7.3-13.676s3.205-13.676 7.3-13.676 7.3 6.007 7.3 13.676-3.207 13.676-7.3 13.676zm0-25.71c-2.731 0-5.655 4.836-5.655 12.034s2.924 12.035 5.655 12.035 5.656-4.836 5.656-12.035-2.924-12.034-5.656-12.034z" transform="translate(-1128.565 -550.219)" style="stroke:#000"/>
                        </g>
                        <circle data-name="椭圆 1602" cx="5.342" cy="5.342" transform="translate(3.091 7.451)" style="stroke:#000" r="5.342"/>
                        <g data-name="组 25043" transform="translate(37.629)">
                            <ellipse data-name="椭圆 1603" cx="6.476" cy="12.855" rx="6.476" ry="12.855" transform="translate(.821 .821)" style="stroke:#000;fill:#fff"/>
                            <path data-name="路径 22069" d="M1227.708 577.571c-4.092 0-7.3-6.007-7.3-13.676s3.205-13.676 7.3-13.676 7.3 6.007 7.3 13.676-3.208 13.676-7.3 13.676zm0-25.71c-2.731 0-5.656 4.836-5.656 12.034s2.924 12.035 5.656 12.035 5.655-4.836 5.655-12.035-2.924-12.034-5.655-12.034z" transform="translate(-1220.411 -550.219)" style="stroke:#000"/>
                        </g>
                        <circle data-name="椭圆 1604" cx="5.342" cy="5.342" transform="translate(40.72 7.451)" style="stroke:#000" r="5.342"/>
                    </g>
                </g>
                <g data-name="组 25051" transform="translate(6.251 108.136)">
                    <g data-name="组 25048">
                        <g data-name="组 25047">
                            <g data-name="组 25046">
                                <path data-name="路径 22070" d="M579.576 545.7H471.305a12.157 12.157 0 0 1-12.157-12.157V486.23a15.342 15.342 0 0 1 8.769-14.134L517.6 450a23.715 23.715 0 0 1 15.681 0l49.683 22.1a15.342 15.342 0 0 1 8.769 14.134v47.312a12.157 12.157 0 0 1-12.157 12.154z" transform="translate(-458.329 -447.839)" style="fill:#ff9105;stroke:#000"/>
                                <path data-name="路径 22071" d="M578.395 545.327h-108.27a12.992 12.992 0 0 1-12.977-12.977v-47.312a16.112 16.112 0 0 1 9.255-14.883l49.684-22.1a.4.4 0 0 1 .045-.018 24.4 24.4 0 0 1 16.257 0l.045.018 49.683 22.1a16.112 16.112 0 0 1 9.255 14.883v47.312a12.992 12.992 0 0 1-12.977 12.977zm-61.665-95.761-49.661 22.087a14.472 14.472 0 0 0-8.282 13.385v47.312a11.351 11.351 0 0 0 11.338 11.338h108.27a11.351 11.351 0 0 0 11.338-11.338v-47.312a14.473 14.473 0 0 0-8.282-13.385l-49.662-22.087a23.02 23.02 0 0 0-15.059 0z" transform="translate(-457.148 -446.647)" style="stroke:#000"/>
                            </g>
                        </g>
                    </g>
                    <g data-name="组 25049" transform="translate(11.123 30.326)">
                        <ellipse data-name="椭圆 1605" cx="6.476" cy="12.855" rx="6.476" ry="12.855" transform="translate(.821 .821)" style="stroke:#000;fill:#fff"/>
                        <path data-name="路径 22072" d="M491.595 548.02c-4.092 0-7.3-6.008-7.3-13.677s3.206-13.676 7.3-13.676 7.3 6.007 7.3 13.676-3.208 13.677-7.3 13.677zm0-25.711c-2.731 0-5.656 4.835-5.656 12.034s2.924 12.034 5.656 12.034 5.655-4.836 5.655-12.034-2.924-12.034-5.655-12.034z" transform="translate(-484.297 -520.667)" style="stroke:#000"/>
                    </g>
                    <circle data-name="椭圆 1606" cx="5.342" cy="5.342" transform="translate(11.944 38.661)" style="stroke:#000" r="5.342"/>
                    <g data-name="组 25050" transform="translate(55.249 30.326)">
                        <ellipse data-name="椭圆 1607" cx="6.476" cy="12.855" rx="6.476" ry="12.855" transform="translate(.821 .821)" style="stroke:#000;fill:#fff"/>
                        <path data-name="路径 22073" d="M599.3 548.02c-4.093 0-7.3-6.008-7.3-13.677s3.205-13.676 7.3-13.676 7.3 6.007 7.3 13.676-3.21 13.677-7.3 13.677zm0-25.711c-2.731 0-5.656 4.835-5.656 12.034s2.924 12.034 5.656 12.034 5.655-4.836 5.655-12.034-2.926-12.034-5.655-12.034z" transform="translate(-592 -520.667)" style="stroke:#000"/>
                    </g>
                    <circle data-name="椭圆 1608" cx="5.342" cy="5.342" transform="translate(56.07 38.661)" style="stroke:#000" r="5.342"/>
                </g>
                <g data-name="组 25055" transform="translate(57.237 171.138)">
                    <g data-name="组 25052">
                        <path data-name="路径 22074" d="M857.229 557.705c-2.73-2.353-6.885-2.808-10.672-2.552a55.492 55.492 0 0 0-13.579 2.953 58.192 58.192 0 0 0 7.75-7.127c4.994-5.561 8.895-12.406 8.3-19.51-.356-4.275-2.864-8.825-7.444-10.129-3.617-1.03-7.567.2-10.835 1.93-7.206 3.806-12.473 9.826-18.18 15.326a45.842 45.842 0 0 0 6.568-16.752c.948-5.857.506-12.222-3.274-17.085-2.275-2.927-6.219-5.241-10.114-4.454-3.076.621-5.32 2.989-6.844 5.451-3.667 5.925-4.426 12.874-6.188 19.458-.033.123-.072.243-.106.366 0-.213.006-.424.006-.639 0-19.3-6.709-34.942-14.985-34.942s-14.986 15.644-14.986 34.942c0 .215.006.425.007.639-.034-.123-.072-.243-.106-.366-1.763-6.583-2.522-13.532-6.188-19.458-1.524-2.462-3.768-4.83-6.844-5.451-3.9-.787-7.84 1.527-10.115 4.454-3.78 4.864-4.221 11.229-3.274 17.085a45.843 45.843 0 0 0 6.568 16.752c-5.707-5.5-10.973-11.52-18.18-15.326-3.267-1.725-7.218-2.96-10.835-1.93-4.58 1.3-7.088 5.854-7.444 10.129-.592 7.1 3.309 13.949 8.3 19.51a58.192 58.192 0 0 0 7.75 7.127 55.489 55.489 0 0 0-13.579-2.953c-3.786-.255-7.941.2-10.671 2.552-3.457 2.98-3.444 8.048-1.638 12.022 3 6.6 9.9 11.2 17.142 14.207 14.433 6 34.7 7.482 50.194 1.446a23.769 23.769 0 0 0 27.792 0c15.491 6.035 35.761 4.556 50.194-1.446 7.241-3.011 14.14-7.605 17.142-14.207 1.812-3.974 1.825-9.042-1.632-12.022z" transform="translate(-694.397 -489.178)" style="fill:#9682f5;stroke:#000"/>
                        <path data-name="路径 22075" d="M776.477 589.5a24.281 24.281 0 0 1-14.018-4.38c-14.58 5.52-34.759 4.885-50.387-1.614-6.146-2.556-14.183-7.167-17.572-14.625-1.852-4.073-2-9.667 1.849-12.982 2.506-2.159 6.292-3.084 11.262-2.749a49.405 49.405 0 0 1 9.821 1.783 55.881 55.881 0 0 1-4.657-4.593c-6.1-6.791-9.041-13.75-8.51-20.125.363-4.365 2.989-9.412 8.036-10.85 3.259-.927 7.214-.238 11.442 1.993 5.577 2.945 10.043 7.222 14.311 11.459a43.968 43.968 0 0 1-3.891-12.03c-1.165-7.2.023-13.328 3.436-17.719 3.452-4.442 8.042-5.338 10.924-4.754 2.822.57 5.373 2.583 7.378 5.822 2.7 4.367 3.87 9.29 4.951 14.081C762 500.889 768.448 488 776.477 488s14.482 12.893 15.625 30.229c1.081-4.791 2.249-9.716 4.951-14.083 2.006-3.239 4.557-5.253 7.379-5.822 2.881-.582 7.471.313 10.923 4.754 3.412 4.391 4.6 10.518 3.436 17.719a43.972 43.972 0 0 1-3.891 12.03c4.268-4.237 8.734-8.514 14.311-11.459 4.228-2.232 8.184-2.92 11.442-1.993 5.047 1.437 7.673 6.485 8.036 10.85.531 6.375-2.411 13.334-8.51 20.125a55.727 55.727 0 0 1-4.657 4.593 49.4 49.4 0 0 1 9.822-1.783c4.965-.337 8.756.59 11.262 2.749 3.846 3.315 3.7 8.909 1.849 12.982-3.389 7.457-11.426 12.069-17.572 14.625-15.629 6.5-35.808 7.135-50.387 1.614a24.283 24.283 0 0 1-14.019 4.37zm-14.193-6.068.786.106a22.95 22.95 0 0 0 26.814 0l.786-.106c14.243 5.549 34.169 4.971 49.583-1.44 5.873-2.442 13.541-6.818 16.71-13.79 1.6-3.516 1.776-8.3-1.427-11.063-2.7-2.326-6.972-2.563-10.081-2.355a55.482 55.482 0 0 0-13.379 2.915l-.756-1.428a57.237 57.237 0 0 0 7.641-7.026c4.038-4.5 8.719-11.424 8.1-18.895-.316-3.8-2.558-8.187-6.852-9.409-3.592-1.023-7.545.45-10.227 1.866-5.745 3.034-10.348 7.616-14.8 12.047-1.041 1.036-2.117 2.107-3.193 3.145l-1.262-1.027a44.768 44.768 0 0 0 6.453-16.446c.76-4.7.837-11.37-3.112-16.452-2.018-2.6-5.679-4.886-9.305-4.154-2.99.6-5.082 3.1-6.31 5.079-2.651 4.285-3.773 9.264-4.858 14.079-.382 1.7-.777 3.451-1.235 5.16-.019.073-.04.145-.062.217l-.045.155-1.609-.224v-.633c0-18.5-6.487-34.123-14.166-34.123s-14.167 15.626-14.167 34.123v.634l-1.609.223-.045-.156c-.021-.072-.043-.143-.062-.215-.458-1.71-.853-3.464-1.235-5.161-1.085-4.815-2.207-9.794-4.859-14.079-1.228-1.984-3.319-4.475-6.31-5.079-3.628-.732-7.288 1.558-9.305 4.154-3.949 5.081-3.872 11.751-3.112 16.452a44.771 44.771 0 0 0 6.452 16.446L740.971 538a280.877 280.877 0 0 1-3.193-3.145c-4.452-4.431-9.056-9.013-14.8-12.047-2.682-1.416-6.632-2.889-10.227-1.866-4.294 1.223-6.536 5.606-6.852 9.409-.622 7.471 4.059 14.4 8.1 18.895a57.229 57.229 0 0 0 7.64 7.026l-.756 1.428a55.488 55.488 0 0 0-13.383-2.91c-3.109-.207-7.381.03-10.081 2.356-3.2 2.761-3.025 7.546-1.427 11.062 3.17 6.972 10.836 11.347 16.71 13.79 15.412 6.409 35.337 6.988 49.582 1.439z" transform="translate(-693.238 -487.997)" style="stroke:#000"/>
                    </g>
                    <g data-name="组 25053" transform="translate(53.878 57.386)">
                        <ellipse data-name="椭圆 1609" cx="6.476" cy="12.855" rx="6.476" ry="12.855" transform="translate(.821 .821)" style="stroke:#000;fill:#fff"/>
                        <path data-name="路径 22076" d="M832.042 655.417c-4.092 0-7.3-6.007-7.3-13.676s3.205-13.676 7.3-13.676 7.3 6.007 7.3 13.676-3.208 13.676-7.3 13.676zm0-25.71c-2.731 0-5.656 4.836-5.656 12.034s2.924 12.034 5.656 12.034 5.656-4.836 5.656-12.034-2.925-12.034-5.656-12.034z" transform="translate(-824.744 -628.065)" style="stroke:#000"/>
                    </g>
                    <circle data-name="椭圆 1610" cx="5.342" cy="5.342" transform="translate(55.74 62.443)" style="stroke:#000" r="5.342"/>
                    <g data-name="组 25054" transform="translate(98.004 57.386)">
                        <ellipse data-name="椭圆 1611" cx="6.476" cy="12.855" rx="6.476" ry="12.855" transform="translate(.821 .821)" style="stroke:#000;fill:#fff"/>
                        <path data-name="路径 22077" d="M939.745 655.417c-4.092 0-7.3-6.007-7.3-13.676s3.205-13.676 7.3-13.676 7.3 6.007 7.3 13.676-3.208 13.676-7.3 13.676zm0-25.71c-2.731 0-5.656 4.836-5.656 12.034s2.924 12.034 5.656 12.034 5.655-4.836 5.655-12.034-2.924-12.034-5.655-12.034z" transform="translate(-932.448 -628.065)" style="stroke:#000"/>
                    </g>
                    <circle data-name="椭圆 1612" cx="5.342" cy="5.342" transform="translate(99.767 62.443)" style="stroke:#000" r="5.342"/>
                </g>
            </g>
            <path data-name="矩形 11283" transform="translate(.001)" style="fill:none" d="M0 0h448v310H0z"/>
        </g>
        <g data-name="组 26569">
            <path data-name="联合 13" d="M21586.713 5751.842c4-2.622 5.549-5.526 5.955-8.081-40.979-1.031-73.668-20.987-73.668-45.457 0-25.129 34.475-45.5 77-45.5s77 20.37 77 45.5c0 22.229-26.977 40.733-62.641 44.708-8.049 5.388-21.928 10.6-24.812 10.6-.92-.002-.717-.536 1.166-1.77z" transform="translate(-21239.5 -5647.61)" style="stroke-width:2px;stroke:#000;fill:#fff"/>
            <g data-name="组 26568">
                <text data-name="大人先登記 再綁定孩童" transform="translate(355.999 42.195)" style="fill:#ff4890;font-size:18px;font-family:NotoSansTC-Bold,Noto Sans TC;font-weight:700"><tspan x="-45" y="0">大人先登記</tspan><tspan x="-45" y="26">再綁定孩童</tspan></text>
            </g>
        </g>
    </g>
</svg>
