<svg width="16" height="17" viewBox="0 0 16 17" fill="none" xmlns="http://www.w3.org/2000/svg">
<path fill-rule="evenodd" clip-rule="evenodd" d="M8 15.5C9.85652 15.5 11.637 14.7625 12.9497 13.4497C14.2625 12.137 15 10.3565 15 8.5C15 6.64348 14.2625 4.86301 12.9497 3.55025C11.637 2.2375 9.85652 1.5 8 1.5C6.14348 1.5 4.36301 2.2375 3.05025 3.55025C1.7375 4.86301 1 6.64348 1 8.5C1 10.3565 1.7375 12.137 3.05025 13.4497C4.36301 14.7625 6.14348 15.5 8 15.5ZM11.244 7.369C11.4082 7.20483 11.5004 6.98217 11.5004 6.75C11.5004 6.51783 11.4082 6.29517 11.244 6.131C11.0798 5.96683 10.8572 5.8746 10.625 5.8746C10.3928 5.8746 10.1702 5.96683 10.006 6.131L7.125 9.013L5.994 7.88C5.82957 7.71583 5.60665 7.62371 5.37429 7.62389C5.14194 7.62408 4.91917 7.71657 4.755 7.881C4.59083 8.04543 4.49871 8.26835 4.49889 8.50071C4.49908 8.73306 4.59157 8.95583 4.756 9.12L6.506 10.87C6.58726 10.9513 6.68376 11.0159 6.78997 11.0599C6.89618 11.1039 7.01003 11.1266 7.125 11.1266C7.23997 11.1266 7.35382 11.1039 7.46003 11.0599C7.56624 11.0159 7.66274 10.9513 7.744 10.87L11.244 7.37V7.369Z" fill="#2D54DA"/>
</svg>
